<?xml version="1.0" encoding="utf-8"?>
<!-- Generator: Adobe Illustrator 27.2.0, SVG Export Plug-In . SVG Version: 6.00 Build 0)  -->
<svg version="1.1" id="Calque_1" xmlns="http://www.w3.org/2000/svg" xmlns:xlink="http://www.w3.org/1999/xlink" x="0px" y="0px"
	 viewBox="0 0 643.72 643.71" style="enable-background:new 0 0 643.72 643.71;" xml:space="preserve">
<style type="text/css">
	.st0{fill:#FFFFFF;}
</style>
<g>
	<path class="st0" d="M462.22,636.24c-93.58,9.96-187.15,9.96-280.73,0C100.82,626.16,17.56,542.89,7.47,462.22
		c-9.97-93.58-9.97-187.15,0-280.73C17.56,100.82,100.83,17.56,181.49,7.47c93.58-9.96,187.15-9.96,280.73,0
		c80.67,10.08,163.94,93.34,174.02,174.02c9.96,93.58,9.96,187.15,0,280.73C626.16,542.89,542.89,626.15,462.22,636.24z"/>
	<g>
		<g>
			<g>
				<path d="M322.52,183.68c-36.84,0-69.51-22.1-83.26-56.31c-2.5-6.24,0.52-13.31,6.75-15.82c6.25-2.48,13.31,0.52,15.82,6.75
					c10.01,24.95,33.84,41.06,60.69,41.06c26.89,0,50.71-16.11,60.68-41.04c2.5-6.24,9.56-9.28,15.8-6.78
					c6.24,2.5,9.27,9.57,6.78,15.8C392.1,161.57,359.41,183.68,322.52,183.68z"/>
			</g>
			<g>
				<path d="M322.58,354c-30.64,0-55.48,27.02-55.48,60.25c0,47.41,55.48,90.47,55.48,90.47s55.38-44.41,55.38-90.47
					C377.96,381.02,353.22,354,322.58,354z M322.58,443.75c-18.12,0-32.81-14.7-32.81-32.81c0-18.22,14.7-32.81,32.81-32.81
					c18.12,0,32.81,14.6,32.81,32.81C355.4,429.05,340.7,443.75,322.58,443.75z"/>
			</g>
			<g>
				<path d="M322.56,268.99c-29.78,0-54.01-24.23-54.01-54.01s24.23-54.01,54.01-54.01s54.01,24.23,54.01,54.01
					S352.34,268.99,322.56,268.99z M322.56,185.29c-16.37,0-29.69,13.32-29.69,29.69s13.32,29.69,29.69,29.69
					c16.37,0,29.69-13.32,29.69-29.69S338.94,185.29,322.56,185.29z"/>
			</g>
			<g>
				<path d="M180.54,509.46c-2.33,0-4.68-0.66-6.76-2.06c-5.58-3.74-7.07-11.29-3.33-16.87l31.69-47.28
					c3.49-5.21,5.6-11.27,6.09-17.52l2.57-22.42c2.64-22.97,10.85-44.03,23.73-60.91c7.68-10.06,16.59-18.49,25.76-24.38
					c8.52-5.48,17.76-11.13,28.63-14.54l7.13-2.23c6.39-2,13.23,1.55,15.24,7.97c2.01,6.4-1.56,13.23-7.97,15.24l-7.13,2.23
					c-7.98,2.5-15.61,7.2-22.74,11.8c-6.84,4.39-13.61,10.85-19.59,18.68c-10.23,13.4-16.76,30.32-18.9,48.93l-2.53,21.99
					c-0.79,9.97-4.29,20.05-10.1,28.71l-31.69,47.28C188.31,507.58,184.46,509.46,180.54,509.46z"/>
			</g>
			<g>
				<path d="M299.7,325.01c-0.95,0-1.91-0.11-2.87-0.35c-0.99-0.24-98.79-25.16-84.91-130.68c0.87-6.66,7.04-11.37,13.64-10.47
					c6.66,0.87,11.34,6.98,10.47,13.64c-11.06,84.1,63.34,103.09,66.52,103.86c6.53,1.58,10.54,8.15,8.96,14.68
					C310.16,321.27,305.19,325.01,299.7,325.01z"/>
			</g>
			<g>
				<path d="M463.17,509.46c-3.92,0-7.76-1.89-10.11-5.39l-31.7-47.28c-5.81-8.67-9.31-18.74-10.14-29.14l-2.48-21.56
					c-2.13-18.61-8.67-35.52-18.9-48.93c-5.97-7.83-12.73-14.29-19.57-18.68c-7.15-4.6-14.79-9.29-22.77-11.8l-7.12-2.23
					c-6.41-2-9.98-8.83-7.97-15.24c2-6.42,8.85-9.99,15.24-7.97l7.13,2.23c10.87,3.4,20.11,9.05,28.65,14.55
					c9.18,5.9,18.08,14.33,25.75,24.38c12.89,16.89,21.1,37.96,23.73,60.91l2.53,21.99c0.53,6.68,2.64,12.74,6.14,17.95l31.7,47.27
					c3.74,5.58,2.25,13.13-3.33,16.88C467.86,508.79,465.5,509.46,463.17,509.46z"/>
			</g>
			<g>
				<path d="M344.01,325.01c-5.48,0-10.46-3.74-11.81-9.31c-1.58-6.53,2.43-13.1,8.96-14.68c3.14-0.78,77.51-20.28,66.52-103.86
					c-0.88-6.66,3.81-12.77,10.47-13.64c6.62-0.91,12.77,3.8,13.64,10.47c13.88,105.52-83.92,130.44-84.91,130.68
					C345.92,324.9,344.96,325.01,344.01,325.01z"/>
			</g>
		</g>
		<g>
			<path d="M144.18,347.33c-8.65,0-17.44-1.78-26.39-6.25c-6.01-3-8.44-10.31-5.44-16.31c2.99-5.99,10.28-8.45,16.31-5.44
				c15.78,7.89,31.44,2.1,55.66-7.98c10.59-4.41,21.55-8.97,33.48-12.08c29.02-7.58,60.32-6.83,85.88,2.04
				c6.35,2.2,9.7,9.13,7.49,15.48c-2.2,6.34-9.12,9.72-15.48,7.49c-21.11-7.33-47.27-7.88-71.76-1.48
				c-10.29,2.69-20.45,6.91-30.28,11.01C177.59,340.49,161.16,347.33,144.18,347.33z"/>
		</g>
		<g>
			<path d="M499.54,347.33c-16.98,0-33.41-6.84-49.49-13.52c-9.83-4.09-19.99-8.32-30.27-11.01c-24.5-6.39-50.65-5.85-71.76,1.48
				c-6.36,2.23-13.28-1.15-15.48-7.49c-2.2-6.35,1.15-13.27,7.49-15.48c25.92-9,56.42-9.73,85.88-2.04
				c11.93,3.12,22.88,7.68,33.48,12.08c24.22,10.08,39.88,15.86,55.66,7.98c6.03-3.01,13.31-0.56,16.31,5.44
				c3.01,6.01,0.57,13.31-5.44,16.31C516.98,345.55,508.19,347.33,499.54,347.33z"/>
		</g>
	</g>
</g>
</svg>
