<?xml version="1.0" encoding="utf-8"?>
<!-- Generator: Adobe Illustrator 27.2.0, SVG Export Plug-In . SVG Version: 6.00 Build 0)  -->
<svg version="1.1" id="Calque_1" xmlns="http://www.w3.org/2000/svg" xmlns:xlink="http://www.w3.org/1999/xlink" x="0px" y="0px"
	 viewBox="0 0 1475.56 390.88" style="enable-background:new 0 0 1475.56 390.88;" xml:space="preserve">
<style type="text/css">
	.st0{fill:#FFFFFF;}
</style>
<g>
	<g>
		<path class="st0" d="M572.56,135.4h-67.58v-22.72h162.15v22.72h-67.58v180.04h-26.98V135.4z"/>
		<path class="st0" d="M813.64,268.87c-6.53,32.66-29.53,49.98-62.76,49.98c-46.85,0-69-32.66-70.42-77.24
			c0-44.3,28.96-76.39,69-76.39c51.97,0,67.87,48.56,66.45,84.05h-109.9c-0.85,25.56,13.63,48.27,45.72,48.27
			c20.16,0,33.79-9.37,38.05-28.68H813.64z M790.36,227.98c-1.42-23-18.17-41.46-42.31-41.46c-24.99,0-40.61,18.74-42.03,41.46
			H790.36z"/>
		<path class="st0" d="M968.97,268.87c-6.53,32.66-29.53,49.98-62.76,49.98c-46.85,0-69-32.66-70.42-77.24
			c0-44.3,28.96-76.39,69-76.39c51.97,0,67.87,48.56,66.45,84.05h-109.9c-0.85,25.56,13.63,48.27,45.72,48.27
			c20.16,0,33.79-9.37,38.05-28.68H968.97z M945.69,227.98c-1.42-23-18.17-41.46-42.31-41.46c-24.99,0-40.61,18.74-42.03,41.46
			H945.69z"/>
		<path class="st0" d="M999.07,168.63h22.72v21.58h0.57c11.07-16.75,26.69-24.99,47.42-24.99c18.17,0,34.36,6.82,40.32,24.99
			c9.94-15.9,26.98-24.99,46-24.99c29.25,0,48.84,12.21,48.84,42.6v107.62h-24.14v-96.27c0-18.17-4.83-32.66-28.4-32.66
			c-23.57,0-38.34,14.77-38.34,37.48v91.44h-24.14v-96.27c0-19.03-5.96-32.66-27.54-32.66c-28.4,0-39.19,26.12-39.19,37.48v91.44
			h-24.14V168.63z"/>
		<path class="st0" d="M1249.24,112.69h26.98v202.75h-26.98V112.69z"/>
		<path class="st0" d="M1324.49,112.69h88.88c40.61,0,62.19,22.15,62.19,59.92c0,37.77-21.58,60.2-62.19,59.92h-61.91v82.92h-26.98
			V112.69z M1351.47,209.8h52.82c30.67,0.28,44.3-13.06,44.3-37.2s-13.63-37.2-44.3-37.2h-52.82V209.8z"/>
	</g>
	<g>
		<g>
			<g>
				<g>
					<path class="st0" d="M207.25,71.56c-36.1,0-68.13-21.66-81.6-55.19c-2.45-6.11,0.51-13.05,6.62-15.51
						c6.13-2.44,13.05,0.51,15.51,6.62c9.82,24.45,33.17,40.25,59.48,40.25c26.36,0,49.7-15.79,59.47-40.22
						c2.45-6.12,9.37-9.1,15.49-6.65c6.12,2.45,9.09,9.38,6.65,15.49C275.45,49.89,243.42,71.56,207.25,71.56z"/>
				</g>
			</g>
			<g>
				<g>
					<path class="st0" d="M207.32,238.5c-30.03,0-54.38,26.48-54.38,59.05c0,46.47,54.38,88.68,54.38,88.68s54.28-43.53,54.28-88.68
						C261.6,264.99,237.35,238.5,207.32,238.5z M207.32,326.47c-17.76,0-32.16-14.41-32.16-32.16c0-17.86,14.41-32.16,32.16-32.16
						s32.16,14.31,32.16,32.16C239.48,312.06,225.07,326.47,207.32,326.47z"/>
				</g>
			</g>
			<g>
				<g>
					<path class="st0" d="M207.3,155.18c-29.19,0-52.94-23.75-52.94-52.94s23.75-52.94,52.94-52.94s52.94,23.75,52.94,52.94
						S236.49,155.18,207.3,155.18z M207.3,73.14c-16.05,0-29.1,13.06-29.1,29.1s13.06,29.1,29.1,29.1s29.1-13.06,29.1-29.1
						S223.35,73.14,207.3,73.14z"/>
				</g>
			</g>
			<g>
				<g>
					<path class="st0" d="M68.1,390.88c-2.28,0-4.59-0.65-6.62-2.02c-5.47-3.66-6.93-11.07-3.27-16.54l31.06-46.34
						c3.42-5.11,5.49-11.04,5.97-17.17l2.52-21.97c2.59-22.51,10.63-43.15,23.26-59.7c7.53-9.86,16.26-18.12,25.25-23.9
						c8.35-5.38,17.4-10.91,28.06-14.26l6.99-2.19c6.26-1.96,12.97,1.52,14.93,7.81c1.97,6.28-1.53,12.97-7.81,14.93l-6.98,2.19
						c-7.82,2.45-15.3,7.05-22.29,11.56c-6.7,4.3-13.34,10.63-19.2,18.31c-10.02,13.14-16.43,29.72-18.52,47.96l-2.48,21.56
						c-0.77,9.78-4.2,19.65-9.9,28.14l-31.06,46.34C75.71,389.03,71.94,390.88,68.1,390.88z"/>
				</g>
			</g>
			<g>
				<g>
					<path class="st0" d="M184.9,210.09c-0.93,0-1.87-0.11-2.81-0.34c-0.97-0.24-96.82-24.66-83.22-128.08
						c0.86-6.53,6.9-11.15,13.37-10.26c6.52,0.86,11.12,6.84,10.26,13.37c-10.84,82.43,62.08,101.05,65.2,101.8
						c6.4,1.55,10.33,7.99,8.78,14.39C195.15,206.43,190.27,210.09,184.9,210.09z"/>
				</g>
			</g>
			<g>
				<g>
					<path class="st0" d="M345.12,390.88c-3.84,0-7.61-1.85-9.91-5.28l-31.07-46.34c-5.69-8.49-9.13-18.37-9.94-28.56l-2.44-21.14
						c-2.09-18.24-8.49-34.82-18.53-47.96c-5.85-7.67-12.48-14-19.18-18.31c-7.01-4.51-14.5-9.11-22.31-11.56l-6.98-2.19
						c-6.28-1.96-9.78-8.66-7.81-14.93c1.96-6.29,8.67-9.79,14.93-7.81l6.98,2.19c10.65,3.34,19.71,8.87,28.08,14.26
						c8.99,5.78,17.72,14.05,25.24,23.89c12.64,16.56,20.68,37.2,23.26,59.7l2.48,21.55c0.52,6.55,2.59,12.49,6.01,17.59
						l31.07,46.33c3.66,5.47,2.21,12.87-3.26,16.54C349.71,390.22,347.4,390.88,345.12,390.88z"/>
				</g>
			</g>
			<g>
				<g>
					<path class="st0" d="M228.32,210.09c-5.38,0-10.25-3.66-11.57-9.12c-1.55-6.4,2.38-12.84,8.78-14.39
						c3.07-0.76,75.97-19.88,65.2-101.8c-0.86-6.53,3.73-12.52,10.26-13.37c6.48-0.89,12.52,3.73,13.37,10.26
						c13.61,103.42-82.25,127.85-83.22,128.08C230.19,209.98,229.25,210.09,228.32,210.09z"/>
				</g>
			</g>
		</g>
		<g>
			<g>
				<path class="st0" d="M32.46,231.96c-8.48,0-17.09-1.74-25.87-6.13c-5.89-2.94-8.28-10.1-5.33-15.99
					c2.93-5.88,10.08-8.28,15.99-5.33c15.47,7.73,30.81,2.06,54.55-7.82c10.38-4.32,21.12-8.79,32.82-11.84
					c28.45-7.43,59.12-6.7,84.17,2c6.22,2.16,9.51,8.95,7.35,15.17c-2.15,6.21-8.94,9.52-15.17,7.35
					c-20.69-7.19-46.33-7.73-70.33-1.45c-10.09,2.64-20.05,6.78-29.68,10.79C65.21,225.26,49.1,231.96,32.46,231.96z"/>
			</g>
		</g>
		<g>
			<g>
				<path class="st0" d="M380.76,231.96c-16.64,0-32.75-6.7-48.51-13.26c-9.63-4.01-19.59-8.16-29.67-10.79
					c-24.01-6.27-49.65-5.73-70.34,1.45c-6.24,2.18-13.01-1.13-15.17-7.35c-2.16-6.22,1.13-13.01,7.35-15.17
					c25.41-8.82,55.3-9.54,84.18-2c11.69,3.06,22.43,7.52,32.81,11.84c23.74,9.88,39.09,15.55,54.56,7.82
					c5.91-2.95,13.05-0.55,15.99,5.33c2.95,5.89,0.56,13.05-5.33,15.99C397.85,230.22,389.23,231.96,380.76,231.96z"/>
			</g>
		</g>
	</g>
</g>
</svg>
