<?xml version="1.0" encoding="UTF-8"?>
<!DOCTYPE svg PUBLIC "-//W3C//DTD SVG 1.1//EN" "http://www.w3.org/Graphics/SVG/1.1/DTD/svg11.dtd">
<svg xmlns="http://www.w3.org/2000/svg" version="1.1" width="1135px" height="313px" style="shape-rendering:geometricPrecision; text-rendering:geometricPrecision; image-rendering:optimizeQuality; fill-rule:evenodd; clip-rule:evenodd" xmlns:xlink="http://www.w3.org/1999/xlink">
<g><path style="opacity:0.99" fill="#ea7d1f" d="M -0.5,31.5 C 87.1667,31.5 174.833,31.5 262.5,31.5C 262.5,119.5 262.5,207.5 262.5,295.5C 174.833,295.5 87.1667,295.5 -0.5,295.5C -0.5,207.5 -0.5,119.5 -0.5,31.5 Z"/></g>
<g><path style="opacity:0.981" fill="#545655" d="M 306.5,54.5 C 345.167,54.5 383.833,54.5 422.5,54.5C 422.5,67.8333 422.5,81.1667 422.5,94.5C 410.5,94.5 398.5,94.5 386.5,94.5C 386.5,144.5 386.5,194.5 386.5,244.5C 371.5,244.5 356.5,244.5 341.5,244.5C 341.5,194.5 341.5,144.5 341.5,94.5C 329.833,94.5 318.167,94.5 306.5,94.5C 306.5,81.1667 306.5,67.8333 306.5,54.5 Z"/></g>
<g><path style="opacity:0.953" fill="#e97d1d" d="M 932.5,54.5 C 947.167,54.5 961.833,54.5 976.5,54.5C 976.5,67.8333 976.5,81.1667 976.5,94.5C 961.833,94.5 947.167,94.5 932.5,94.5C 932.5,81.1667 932.5,67.8333 932.5,54.5 Z"/></g>
<g><path style="opacity:1" fill="#fefcfb" d="M 121.5,59.5 C 124.187,59.3359 126.854,59.5026 129.5,60C 124.975,67.2332 121.808,75.0665 120,83.5C 115.1,85.4018 111.933,88.9018 110.5,94C 85.0663,105.038 66.0663,122.871 53.5,147.5C 52.132,148.594 50.9653,148.26 50,146.5C 49.7172,106.788 67.8839,79.2875 104.5,64C 110.253,62.3137 115.919,60.8137 121.5,59.5 Z"/></g>
<g><path style="opacity:1" fill="#fefdfc" d="M 134.5,60.5 C 146.943,60.4243 158.609,63.4243 169.5,69.5C 170.783,74.521 170.783,79.521 169.5,84.5C 155.767,84.0628 142.1,84.8961 128.5,87C 127.01,86.2545 126.01,85.0879 125.5,83.5C 127.691,75.462 130.691,67.7954 134.5,60.5 Z"/></g>
<g><path style="opacity:1" fill="#fef9f5" d="M 176.5,74.5 C 185.603,80.4353 193.27,87.9353 199.5,97C 192.296,93.2566 184.629,90.2566 176.5,88C 175.526,83.5644 175.526,79.0644 176.5,74.5 Z"/></g>
<g><path style="opacity:1" fill="#fefdfb" d="M 149.5,89.5 C 155.523,89.6691 161.523,90.1691 167.5,91C 168.059,91.7247 168.392,92.5581 168.5,93.5C 165.46,111.573 158.127,127.573 146.5,141.5C 143.891,140.77 141.224,140.27 138.5,140C 131.109,129.837 126.443,118.504 124.5,106C 127.717,101.921 130.384,97.421 132.5,92.5C 138.244,91.2007 143.911,90.2007 149.5,89.5 Z"/></g>
<g><path style="opacity:0.976" fill="#545655" d="M 470.5,92.5 C 505.512,88.902 528.679,103.569 540,136.5C 541.957,149.085 542.79,161.752 542.5,174.5C 513.833,174.5 485.167,174.5 456.5,174.5C 455.382,187.9 459.382,199.4 468.5,209C 475.855,212.877 483.522,213.543 491.5,211C 501.776,208.941 511.276,205.107 520,199.5C 524.998,208.162 529.498,217.162 533.5,226.5C 510.192,247.16 483.526,253.327 453.5,245C 438.692,238.192 427.859,227.359 421,212.5C 410.555,186.374 409.888,160.041 419,133.5C 429.568,111.42 446.735,97.7537 470.5,92.5 Z M 478.5,121.5 C 492.836,123.51 500.169,131.844 500.5,146.5C 487.167,146.5 473.833,146.5 460.5,146.5C 461.89,134.676 467.89,126.343 478.5,121.5 Z"/></g>
<g><path style="opacity:0.977" fill="#545655" d="M 611.5,92.5 C 634.224,89.3506 653.39,96.0173 669,112.5C 675.198,120.564 679.531,129.564 682,139.5C 683.301,151.127 683.801,162.794 683.5,174.5C 654.775,173.846 626.275,174.513 598,176.5C 597.391,187.062 600.057,196.729 606,205.5C 610.099,210.132 615.266,212.465 621.5,212.5C 635.901,211.366 649.235,207.033 661.5,199.5C 666.307,208.081 670.641,216.914 674.5,226C 672.846,228.987 670.513,231.321 667.5,233C 654.32,241.423 639.987,246.756 624.5,249C 594.101,250.59 572.934,237.423 561,209.5C 552.806,187.558 551.473,165.225 557,142.5C 566.162,115.831 584.328,99.1648 611.5,92.5 Z M 619.5,121.5 C 629.803,121.737 636.637,126.737 640,136.5C 641.043,139.757 641.543,143.09 641.5,146.5C 628.167,146.5 614.833,146.5 601.5,146.5C 603.01,134.694 609.01,126.361 619.5,121.5 Z"/></g>
<g><path style="opacity:0.978" fill="#545655" d="M 775.5,92.5 C 792.304,89.9909 806.637,94.6575 818.5,106.5C 839.721,90.7635 862.387,88.2635 886.5,99C 897.392,106.612 903.226,117.112 904,130.5C 904.5,168.499 904.667,206.499 904.5,244.5C 889.5,244.5 874.5,244.5 859.5,244.5C 859.667,207.498 859.5,170.498 859,133.5C 857.604,130.216 855.104,128.549 851.5,128.5C 842.294,129.399 834.127,132.733 827,138.5C 826.5,173.832 826.333,209.165 826.5,244.5C 811.833,244.5 797.167,244.5 782.5,244.5C 782.667,208.498 782.5,172.498 782,136.5C 782.006,130.671 779.173,128.337 773.5,129.5C 763.993,129.921 755.993,133.587 749.5,140.5C 748.5,175.16 748.167,209.827 748.5,244.5C 733.833,244.5 719.167,244.5 704.5,244.5C 704.5,195.167 704.5,145.833 704.5,96.5C 719.167,96.5 733.833,96.5 748.5,96.5C 748.335,99.8499 748.502,103.183 749,106.5C 757.12,100.358 765.953,95.6916 775.5,92.5 Z"/></g>
<g><path style="opacity:0.987" fill="#545655" d="M 1134.5,152.5 C 1134.5,162.5 1134.5,172.5 1134.5,182.5C 1132.74,199.619 1126.9,215.286 1117,229.5C 1101.63,246.176 1082.8,252.009 1060.5,247C 1055.92,245.129 1051.75,242.629 1048,239.5C 1047.5,258.497 1047.33,277.497 1047.5,296.5C 1032.83,296.5 1018.17,296.5 1003.5,296.5C 1003.5,229.833 1003.5,163.167 1003.5,96.5C 1018.17,96.5 1032.83,96.5 1047.5,96.5C 1047.18,99.5719 1047.52,102.572 1048.5,105.5C 1064.74,91.0539 1082.74,88.5539 1102.5,98C 1112.1,104.263 1119.6,112.43 1125,122.5C 1129.31,132.267 1132.48,142.267 1134.5,152.5 Z M 1070.5,128.5 C 1077.99,129.497 1083.16,133.497 1086,140.5C 1088.85,149.949 1090.02,159.615 1089.5,169.5C 1090.05,180.798 1088.55,191.798 1085,202.5C 1079.01,212.859 1070.51,215.359 1059.5,210C 1053.23,204.628 1049.73,197.795 1049,189.5C 1047.51,173.528 1047.18,157.528 1048,141.5C 1053.91,134.136 1061.41,129.803 1070.5,128.5 Z"/></g>
<g><path style="opacity:1" fill="#fefdfc" d="M 173.5,92.5 C 186.546,95.6042 197.713,101.937 207,111.5C 213.403,128.611 214.069,145.945 209,163.5C 201.305,168.431 193.138,172.431 184.5,175.5C 172.012,170.761 161.012,163.761 151.5,154.5C 152.441,151.18 152.608,147.847 152,144.5C 163.747,129.101 170.913,111.768 173.5,92.5 Z"/></g>
<g><path style="opacity:1" fill="#fefdfd" d="M 110.5,99.5 C 113.841,99.6559 116.674,100.989 119,103.5C 120.725,118.512 125.891,132.179 134.5,144.5C 132.359,148.336 131.859,152.336 133,156.5C 122.803,164.938 111.469,171.605 99,176.5C 97.1769,175.349 95.3436,174.182 93.5,173C 89.4841,172.814 85.4841,172.814 81.5,173C 71.8538,168.188 63.5205,161.688 56.5,153.5C 68.2161,129.117 86.2161,111.117 110.5,99.5 Z"/></g>
<g><path style="opacity:0.973" fill="#545655" d="M 932.5,116.5 C 947.167,116.5 961.833,116.5 976.5,116.5C 976.5,159.167 976.5,201.833 976.5,244.5C 961.833,244.5 947.167,244.5 932.5,244.5C 932.5,201.833 932.5,159.167 932.5,116.5 Z"/></g>
<g><path style="opacity:1" fill="#fefcfa" d="M 137.5,159.5 C 141.462,160.277 145.462,160.444 149.5,160C 157.64,167.24 166.64,173.24 176.5,178C 157.621,184.032 138.287,186.032 118.5,184C 113.094,183.385 107.761,182.385 102.5,181C 115.376,175.588 127.043,168.421 137.5,159.5 Z"/></g>
<g><path style="opacity:1" fill="#fefbf8" d="M 53.5,160.5 C 61.5909,166.901 70.2575,172.568 79.5,177.5C 80.4519,179.045 80.7852,180.712 80.5,182.5C 74.5787,183.981 68.5787,184.481 62.5,184C 57.4265,176.944 54.4265,169.111 53.5,160.5 Z"/></g>
<g><path style="opacity:1" fill="#fef4ed" d="M 204.5,171.5 C 205.239,171.369 205.906,171.536 206.5,172C 205.039,174.421 203.706,176.921 202.5,179.5C 199.264,180.941 196.264,180.608 193.5,178.5C 197.336,176.345 201.003,174.011 204.5,171.5 Z"/></g>
<g><path style="opacity:1" fill="#fefcfb" d="M 181.5,181.5 C 187.277,182.695 192.944,184.362 198.5,186.5C 172.511,219.661 139.511,229.495 99.5,216C 86.9587,210.293 76.2921,202.127 67.5,191.5C 68.3805,190.029 69.7139,189.196 71.5,189C 74.5252,188.639 77.5252,188.139 80.5,187.5C 87.613,193.299 94.113,192.632 100,185.5C 124.186,190.949 148.353,190.783 172.5,185C 175.718,184.1 178.718,182.933 181.5,181.5 Z"/></g>
<g><path style="opacity:1" fill="#fefdfb" d="M 171.5,250.5 C 187.466,252.485 203.799,253.152 220.5,252.5C 220.5,257.167 220.5,261.833 220.5,266.5C 204.167,266.5 187.833,266.5 171.5,266.5C 171.673,270.17 170.007,272.67 166.5,274C 142.833,274.667 119.167,274.667 95.5,274C 92.1828,272.52 90.1828,270.02 89.5,266.5C 73.6754,265.504 57.6754,265.17 41.5,265.5C 41.5,261.167 41.5,256.833 41.5,252.5C 57.6754,252.83 73.6754,252.496 89.5,251.5C 90.1434,248.012 92.1434,245.512 95.5,244C 104.827,243.5 114.161,243.334 123.5,243.5C 123.5,238.167 123.5,232.833 123.5,227.5C 128.5,227.5 133.5,227.5 138.5,227.5C 138.5,232.833 138.5,238.167 138.5,243.5C 147.506,243.334 156.506,243.5 165.5,244C 169.099,244.764 171.099,246.93 171.5,250.5 Z"/></g>
<g><path style="opacity:1" fill="#f8ddc5" d="M 89.5,251.5 C 73.6754,252.496 57.6754,252.83 41.5,252.5C 41.5,256.833 41.5,261.167 41.5,265.5C 57.6754,265.17 73.6754,265.504 89.5,266.5C 73.1667,266.5 56.8333,266.5 40.5,266.5C 40.5,261.5 40.5,256.5 40.5,251.5C 56.8333,251.5 73.1667,251.5 89.5,251.5 Z"/></g>
<g><path style="opacity:1" fill="#f9ddc5" d="M 171.5,250.5 C 187.931,251.153 204.265,251.82 220.5,252.5C 203.799,253.152 187.466,252.485 171.5,250.5 Z"/></g>
</svg>
