<?xml version="1.0" encoding="UTF-8"?>
<svg id="Mode_Isolation" data-name="Mode Isolation" xmlns="http://www.w3.org/2000/svg" viewBox="0 0 905.32 178.69">
  <defs>
    <style>
      .cls-1 {
        fill: #4070e5;
      }

      .cls-2 {
        fill: #59b9f0;
      }

      .cls-3 {
        fill: #fff;
      }

      .cls-4 {
        fill: #00dbc6;
      }

      .cls-5 {
        fill: #17184c;
      }
    </style>
  </defs>
  <circle class="cls-1" cx="89.34" cy="89.34" r="89.34"/>
  <g>
    <path class="cls-4" d="M901.69,75.84h-31.37c-.79,1.33-1.73,2.52-2.87,3.52-3.66,3.22-9.22,4.83-16.67,4.83h-19.29v27.27h26.11c9.59,0,17.96-1.96,25.09-5.87,7.13-3.91,12.69-9.38,16.67-16.38.89-1.57,1.64-3.21,2.33-4.89v-8.47Z"/>
    <g>
      <path class="cls-5" d="M242.54,47.96v-19.39c0-5.9,4.78-10.68,10.68-10.68h21.95v30.07h22.56v19.99h-22.56v48.26c0,4.97,1.13,8.47,3.4,10.51,2.26,2.05,5.14,3.1,8.65,3.17,3.5.07,7.01-.18,10.51-.77v27.81c-7.45,1.31-14.53,1.71-21.24,1.2-6.72-.51-12.59-2.3-17.63-5.37-5.04-3.07-9.02-7.59-11.94-13.58-2.92-5.98-4.38-13.65-4.38-22.99v-48.26h-15.33v-19.99h15.33Z"/>
      <path class="cls-5" d="M363.61,160.8c-10.57,0-19.97-2.4-28.22-7.19-8.24-4.79-14.73-11.38-19.44-19.76-4.72-8.38-7.08-18-7.08-28.85s2.29-20.68,6.87-29.06c4.58-8.38,10.95-14.97,19.13-19.76,8.17-4.79,17.54-7.19,28.11-7.19,11.13,0,20.71,2.29,28.74,6.87,8.03,4.58,14.23,11.06,18.6,19.45,4.37,8.38,6.55,18.36,6.55,29.91v8.24l-90.88.42.42-20.08h58.12c0-5.63-1.9-10.11-5.71-13.42-3.8-3.31-9.02-4.97-15.64-4.97-5.5,0-9.97,1.06-13.42,3.17-3.45,2.11-6.02,5.39-7.71,9.83-1.69,4.44-2.54,10.11-2.54,17.01,0,9.87,2.01,17.16,6.02,21.88,4.02,4.72,10.25,7.08,18.7,7.08,6.2,0,11.34-1.06,15.43-3.17,2.34-1.21,4.19-2.69,5.56-4.46,2.1-2.71,5.22-4.42,8.65-4.42h23.42c-1.83,11.7-7.61,21.03-17.33,28.01-9.72,6.98-21.84,10.46-36.35,10.46Z"/>
      <path class="cls-5" d="M483.42,160.8c-10.57,0-19.97-2.4-28.22-7.19-8.24-4.79-14.73-11.38-19.44-19.76-4.72-8.38-7.08-18-7.08-28.85s2.29-20.68,6.87-29.06c4.58-8.38,10.95-14.97,19.13-19.76,8.17-4.79,17.54-7.19,28.11-7.19,11.13,0,20.71,2.29,28.74,6.87,8.03,4.58,14.23,11.06,18.6,19.45,4.37,8.38,6.55,18.36,6.55,29.91v8.24l-90.88.42.42-20.08h58.12c0-5.63-1.9-10.11-5.71-13.42-3.8-3.31-9.02-4.97-15.64-4.97-5.5,0-9.97,1.06-13.42,3.17-3.45,2.11-6.02,5.39-7.71,9.83-1.69,4.44-2.54,10.11-2.54,17.01,0,9.87,2.01,17.16,6.02,21.88,4.02,4.72,10.25,7.08,18.7,7.08,6.2,0,11.34-1.06,15.43-3.17,2.34-1.21,4.19-2.69,5.56-4.46,2.1-2.71,5.22-4.42,8.65-4.42h23.42c-1.83,11.7-7.61,21.03-17.33,28.01-9.72,6.98-21.84,10.46-36.35,10.46Z"/>
      <path class="cls-5" d="M583.18,158.05h-32.55V52.37h30.43l3.59,18.18-3.38-3.8c2.11-4.23,5.92-8.24,11.41-12.05,5.5-3.81,12.61-5.71,21.35-5.71,9.3,0,16.77,2.33,22.4,6.98,5.64,4.65,9.79,10.71,12.47,18.18h-5.07c1.69-7.47,5.78-13.53,12.26-18.18,6.48-4.65,14.23-6.98,23.25-6.98,13.67,0,23.88,3.63,30.65,10.89,6.76,7.26,10.15,16.95,10.15,29.06v69.12h-32.55v-60.03c0-6.62-1.58-11.55-4.76-14.8-3.17-3.24-7.37-4.86-12.58-4.86-3.1,0-6.06.67-8.88,2.01-2.82,1.34-5.15,3.67-6.98,6.98-1.83,3.31-2.75,8-2.75,14.06v56.64h-32.55v-60.03c0-6.62-1.55-11.52-4.65-14.69-3.1-3.17-7.26-4.76-12.47-4.76-3.1,0-6.1.67-8.98,2.01-2.89,1.34-5.25,3.67-7.08,6.97-1.83,3.31-2.75,7.93-2.75,13.85v56.64Z"/>
      <path class="cls-1" d="M778.38,17.91v140.14h-32.7V28.59c0-5.9,4.78-10.68,10.68-10.68h22.02Z"/>
    </g>
    <path class="cls-1" d="M831.47,17.91v140.14h-32.53V17.91h32.53Z"/>
    <path class="cls-1" d="M867.45,50.01c3.66,3.22,5.49,8.11,5.49,14.68,0,.06,0,.11,0,.16h32.39c0-.06,0-.11,0-.16,0-9.34-1.99-17.52-5.97-24.52-3.98-7.01-9.53-12.47-16.67-16.38-7.13-3.91-15.5-5.87-25.09-5.87h-33.71v27.27h26.89c7.45,0,13,1.61,16.67,4.83Z"/>
    <path class="cls-2" d="M905.32,64.69c0-9.34-1.99-17.52-5.97-24.52-3.98-7.01-9.53-12.47-16.67-16.38-1.55-.85-3.17-1.59-4.83-2.25l-17.65,24.78c2.92.8,5.34,2.03,7.24,3.7,3.66,3.22,5.49,8.11,5.49,14.68s-1.83,11.46-5.49,14.68c-1.92,1.69-4.38,2.92-7.34,3.73l18.35,24.51c1.45-.6,2.87-1.26,4.23-2,7.13-3.91,12.69-9.38,16.67-16.38,3.98-7.01,5.97-15.18,5.97-24.52Z"/>
  </g>
  <g>
    <path class="cls-3" d="M89.33,89.87c-18.42,0-33.4,14.98-33.4,33.4,0,8.18,2.95,17.03,8.78,26.29l3.36-2.11c2.35-1.48,3.19-4.52,1.89-6.97-3.27-6.18-4.93-11.95-4.93-17.21,0-13.4,10.9-24.3,24.3-24.3s24.3,10.9,24.3,24.3c0,5.28-1.67,11.08-4.97,17.29-1.3,2.45-.46,5.49,1.89,6.97l3.35,2.12c5.86-9.29,8.83-18.16,8.83-26.37,0-18.42-14.98-33.4-33.4-33.4Z"/>
    <path class="cls-3" d="M79.34,41.57c-2.95,3.1-4.49,7.55-3.53,12.34,1.07,5.36,5.4,9.67,10.77,10.71,8.83,1.7,16.56-5.02,16.56-13.54,0-3.66-1.43-6.97-3.75-9.44,3.86-1.93,7.35-4.96,10.15-8.95l-3.45-2.42c-2.06-1.45-4.91-1.35-6.74.38-2.91,2.78-6.33,4.27-9.92,4.27s-7.13-1.58-10.08-4.43c-1.84-1.78-4.73-1.9-6.85-.46l-3.41,2.33c2.8,4.1,6.32,7.23,10.24,9.21Z"/>
    <path class="cls-3" d="M108.73,74.95c7.05-6.2,11.58-15.68,11.58-26.3h-9.11c0,13.6-9.81,24.66-21.87,24.66s-21.87-11.06-21.87-24.66h-9.11c0,10.62,4.53,20.11,11.58,26.3-9.96,1.31-19.19,3.63-26.99,6.84l1.5,3.65c1.08,2.62,4,3.91,6.69,3.01,10.88-3.66,24.22-5.64,38.19-5.64s27.34,1.99,38.22,5.65c2.69.9,5.61-.38,6.69-3l1.5-3.65c-7.8-3.21-17.04-5.53-27.01-6.85Z"/>
    <path class="cls-3" d="M89.33,109.21c-7.63,0-13.81,6.18-13.81,13.81s6.18,13.81,13.81,13.81,13.81-6.18,13.81-13.81-6.18-13.81-13.81-13.81Z"/>
  </g>
</svg>